<svg id="Layer_1" data-name="Layer 1" xmlns="http://www.w3.org/2000/svg" viewBox="0 0 400 400"><defs><style>.cls-1{fill:none;stroke:#b68d65;stroke-miterlimit:10;stroke-width:3.03px;}.cls-2{fill:#426054;}</style></defs><path class="cls-1" d="M37.39,209.06H59.3a25.79,25.79,0,0,1,25.79,25.79v0A25.79,25.79,0,0,1,59.3,260.64H37.39a0,0,0,0,1,0,0V209.06A0,0,0,0,1,37.39,209.06Z"/><path class="cls-1" d="M20.08,183.17H55A12.87,12.87,0,0,1,67.92,196v0A12.87,12.87,0,0,1,55,208.92h-35a0,0,0,0,1,0,0V183.17a0,0,0,0,1,0,0Z"/><path class="cls-1" d="M20.08,208.92H55a12.94,12.94,0,0,1,12.94,12.94v.05A12.94,12.94,0,0,1,55,234.85H20.08a0,0,0,0,1,0,0V208.92A0,0,0,0,1,20.08,208.92Z"/><line class="cls-1" x1="20.08" y1="183.17" x2="37.86" y2="209.06"/><path class="cls-2" d="M136,222.63c0,13.52-10.32,23.86-23.27,23.86H99.62V199.1h12.87C126.28,199.1,136,209.19,136,222.63Zm-4-.17c0-11.76-8-19.53-20.65-19.53h-7.87v39.72h8.29C123.32,242.65,132,234.31,132,222.46Z"/><path class="cls-2" d="M175.79,242.82v3.67H147.27V199.1h28.27v3.75H151.17v17.52h20.14v3.51H151.17v18.94Z"/><path class="cls-2" d="M181.47,222.88a24.24,24.24,0,0,1,24.28-24,20.83,20.83,0,0,1,14.9,6l-2,2.26a19.78,19.78,0,0,0-12.78-4.59,20.36,20.36,0,1,0-.09,40.72,19.69,19.69,0,0,0,12.87-4.59l2,2.34a20.61,20.61,0,0,1-14.81,5.92A24.2,24.2,0,0,1,181.47,222.88Z"/><path class="cls-2" d="M261.27,233.48c0,7.42-5.75,13.1-13.54,13.1l-17.85-.09V199.1h16.25a12.12,12.12,0,0,1,8.8,20.61,9.87,9.87,0,0,1-2.71,2C257,223.3,261.27,227.38,261.27,233.48Zm-27.5-30.88v17.69h11.85c5.67,0,9-3.92,9-8.59s-3.64-9.1-8.54-9.1ZM257.64,233c0-5.35-4.91-9.35-10-9.35H233.77V243h13.88A9.91,9.91,0,0,0,257.64,233Z"/><path class="cls-2" d="M296.14,230.47h-19.8l-6.26,16h-4l18.45-47.39h3.39l18.44,47.39h-4.06Zm-1.35-3.5L286.24,205,277.7,227Z"/><path class="cls-2" d="M310.88,241.74l1.86-2.42c2.37,2.17,8.54,4.09,12.86,4.09,6.52,0,11-3.76,11-9.1,0-5.51-6.43-8.51-12.35-10.76C316,220,310.88,217.7,311,210.28c.09-7.09,6.35-11.77,14.73-11.68a26.26,26.26,0,0,1,12.78,3.83l-1.7,2.51a23.69,23.69,0,0,0-10.91-2.84c-6.43,0-10.66,3-10.92,8.09-.25,5.76,5.16,7.68,11,9.93,8.13,3.34,14.64,6.76,14.64,14.11,0,7.51-6.18,12.68-14.72,12.68C318.07,246.91,311.89,242.91,310.88,241.74Z"/><path class="cls-2" d="M380.19,242.82v3.67H351.67V199.1h28.26v3.75H355.56v17.52H375.7v3.51H355.56v18.94Z"/><line class="cls-1" x1="19.81" y1="235.49" x2="37.15" y2="261.3"/></svg>