<svg id="Layer_1" data-name="Layer 1" xmlns="http://www.w3.org/2000/svg" viewBox="0 0 400 400"><defs><style>.cls-1{fill:none;stroke:#b68d65;stroke-miterlimit:10;stroke-width:7px;}</style></defs><path class="cls-1" d="M118.8,136.08H230.92a132,132,0,0,1,132,132v0a132,132,0,0,1-132,132H118.8a0,0,0,0,1,0,0V136.08a0,0,0,0,1,0,0Z"/><path class="cls-1" d="M30.24,3.6h180A64.8,64.8,0,0,1,275,68.4v2.16a64.8,64.8,0,0,1-64.8,64.8h-180a0,0,0,0,1,0,0V3.6a0,0,0,0,1,0,0Z"/><path class="cls-1" d="M30.24,135.36H210.86A64.18,64.18,0,0,1,275,199.54v4.32A64.18,64.18,0,0,1,210.86,268H30.24a0,0,0,0,1,0,0V135.36A0,0,0,0,1,30.24,135.36Z"/><line class="cls-1" x1="30.24" y1="3.6" x2="118.8" y2="136.08"/><line class="cls-1" x1="30.24" y1="268.04" x2="118.8" y2="400"/></svg>