<svg xmlns="http://www.w3.org/2000/svg" viewBox="0 0 40 40"><g id="Layer_2" data-name="Layer 2"><g id="Layer_1-2" data-name="Layer 1"><path d="M28.67,37.33H10a.67.67,0,0,0-.67.67v1.33a.67.67,0,0,0,1.34,0v-.66h18a.67.67,0,0,0,0-1.34Z"/><path d="M14.67,16.67a.67.67,0,0,0,.66.66H18a.67.67,0,0,0,.67-.66v-4A.67.67,0,0,0,18,12H15.33a.67.67,0,0,0-.66.67v4ZM16,13.33h1.33V16H16Z"/><path d="M8.67,8h-8A.67.67,0,0,0,0,8.67V22a.67.67,0,0,0,.67.67A.67.67,0,0,0,1.33,22V9.33H8.67A.67.67,0,0,0,8.67,8Z"/><path d="M32,32.67a.67.67,0,0,0,.67.66h2.66a.67.67,0,0,0,.67-.66v-4a.67.67,0,0,0-.67-.67H32.67a.67.67,0,0,0-.67.67Zm1.33-3.34h1.34V32H33.33Z"/><path d="M3.33,24C0,24,0,32.58,0,32.67a3.33,3.33,0,0,0,2.67,3.26v3.4a.67.67,0,1,0,1.33,0v-3.4a3.33,3.33,0,0,0,2.67-3.26C6.67,32.58,6.63,24,3.33,24Zm0,10.67a2,2,0,0,1-2-2c0-3.32.9-7.34,2-7.34s2,4,2,7.34A2,2,0,0,1,3.33,34.67Z"/><path d="M7.33,20H4.67a.67.67,0,0,0-.67.67V22a.67.67,0,1,0,1.33,0v-.67H6.67v3.34a.67.67,0,0,0,1.33,0v-4A.67.67,0,0,0,7.33,20Z"/><path d="M32.67,17.33h2.66a.67.67,0,0,0,.67-.66v-4a.67.67,0,0,0-.67-.67H32.67a.67.67,0,0,0-.67.67v4A.67.67,0,0,0,32.67,17.33Zm.66-4h1.34V16H33.33Z"/><path d="M7.33,12H4.67a.67.67,0,0,0-.67.67v4a.67.67,0,0,0,.67.66H7.33A.67.67,0,0,0,8,16.67v-4A.67.67,0,0,0,7.33,12Zm-.66,4H5.33V13.33H6.67V16Z"/><path d="M21.33,16.67a.67.67,0,0,0,.67.66h2.67a.67.67,0,0,0,.66-.66v-4a.67.67,0,0,0-.66-.67H22a.67.67,0,0,0-.67.67v4Zm1.34-3.34H24V16H22.67V13.33Z"/><path d="M39.33,8h-8a.67.67,0,0,0,0,1.33h7.34V36.12A2.09,2.09,0,0,0,38,36a1.87,1.87,0,0,0-.34,0A2.67,2.67,0,0,0,33,36a2,2,0,0,0-.34,0,2,2,0,0,0,0,4H38a2,2,0,0,0,2-2V8.67A.67.67,0,0,0,39.33,8ZM38,38.67H32.67a.67.67,0,0,1,0-1.34.69.69,0,0,1,.36.11.66.66,0,0,0,.61.06A.68.68,0,0,0,34,37a1.33,1.33,0,0,1,2.59,0,.68.68,0,0,0,.4.47.66.66,0,0,0,.61-.06.68.68,0,0,1,1,.56A.67.67,0,0,1,38,38.67Z"/><path d="M22,9.33h2.67a.67.67,0,0,0,.66-.66v-4A.67.67,0,0,0,24.67,4H22a.67.67,0,0,0-.67.67v4A.67.67,0,0,0,22,9.33Zm.67-4H24V8H22.67V5.33Z"/><path d="M21.33,24.67a.67.67,0,0,0,.67.66h2.67a.67.67,0,0,0,.66-.66v-4a.67.67,0,0,0-.66-.67H22a.67.67,0,0,0-.67.67v4Zm1.34-3.34H24V24H22.67V21.33Z"/><path d="M15.33,9.33H18a.67.67,0,0,0,.67-.66v-4A.67.67,0,0,0,18,4H15.33a.67.67,0,0,0-.66.67v4A.67.67,0,0,0,15.33,9.33Zm.67-4h1.33V8H16Z"/><path d="M19.53,32.19a.66.66,0,0,0,0,1,.68.68,0,0,0,.94,0,.66.66,0,0,0,0-1A.7.7,0,0,0,19.53,32.19Z"/><path d="M14.67,24.67a.67.67,0,0,0,.66.66H18a.67.67,0,0,0,.67-.66v-4A.67.67,0,0,0,18,20H15.33a.67.67,0,0,0-.66.67v4ZM16,21.33h1.33V24H16Z"/><path d="M13.33,28.67a.67.67,0,0,0,.67.66h2v6a.67.67,0,1,0,1.33,0v-6h5.34v6a.67.67,0,1,0,1.33,0v-6h2A.67.67,0,1,0,26,28H14A.67.67,0,0,0,13.33,28.67Z"/><path d="M32,24.67a.67.67,0,0,0,.67.66h2.66a.67.67,0,0,0,.67-.66v-4a.67.67,0,0,0-.67-.67H32.67a.67.67,0,0,0-.67.67Zm1.33-3.34h1.34V24H33.33Z"/><path d="M28.67,0H11.33a.67.67,0,0,0-.66.67V35.33a.67.67,0,1,0,1.33,0v-34H28v34a.67.67,0,1,0,1.33,0V.67A.67.67,0,0,0,28.67,0Z"/></g></g></svg>